<svg xmlns="http://www.w3.org/2000/svg" version="1.1" xmlns:xlink="http://www.w3.org/1999/xlink" xmlns:svgjs="http://svgjs.dev/svgjs" width="2000" height="454" viewBox="0 0 2000 454"><g transform="matrix(1,0,0,1,-1.212120023627108,0.32634134521134683)"><svg viewBox="0 0 396 90" data-background-color="#000000" preserveAspectRatio="xMidYMid meet" height="454" width="2000" xmlns="http://www.w3.org/2000/svg" xmlns:xlink="http://www.w3.org/1999/xlink"><g id="tight-bounds" transform="matrix(1,0,0,1,0.2399997646781742,-0.064693218213705)"><svg viewBox="0 0 395.5199999999999 90.12938270988454" height="90.12938270988454" width="395.5199999999999"><g><svg viewBox="0 0 521.2158119064057 118.77239933696309" height="90.12938270988454" width="395.5199999999999"><g><rect width="3.7142122905084802" height="103.1308822028623" x="405.2430688233206" y="7.820758567050397" fill="#ffffff" opacity="1" stroke-width="0" stroke="transparent" fill-opacity="1" class="rect-o-0" data-fill-palette-color="primary" rx="1%" id="o-0" data-palette-color="#ffffff"></rect></g><g transform="matrix(1,0,0,1,0,16.414998750622253)"><svg viewBox="0 0 395.52 85.94240183571858" height="85.94240183571858" width="395.52"><g id="textblocktransform"><svg viewBox="0 0 395.52 85.94240183571858" height="85.94240183571858" width="395.52" id="textblock"><g><svg viewBox="0 0 395.52 41.18618082024699" height="41.18618082024699" width="395.52"><g transform="matrix(1,0,0,1,0,0)"><svg width="395.52" viewBox="2.299999952316284 -33.54999923706055 327.9200134277344 34.14999771118164" height="41.18618082024699" data-palette-color="#ffffff"><path d="M13.45 0.6L13.45 0.6Q9.85 0.6 7.05-0.78 4.25-2.15 2.3-4.35L2.3-4.35 3.8-5.95Q5.6-3.9 8.1-2.7 10.6-1.5 13.45-1.5L13.45-1.5Q17.25-1.5 19.45-3.33 21.65-5.15 21.65-8.1L21.65-8.1Q21.65-9.65 21.18-10.73 20.7-11.8 19.9-12.58 19.1-13.35 18.03-13.9 16.95-14.45 15.75-15L15.75-15 10.75-17.25Q9.7-17.7 8.5-18.35 7.3-19 6.33-19.98 5.35-20.95 4.7-22.28 4.05-23.6 4.05-25.45L4.05-25.45Q4.05-27.25 4.78-28.73 5.5-30.2 6.78-31.28 8.05-32.35 9.83-32.95 11.6-33.55 13.65-33.55L13.65-33.55Q16.65-33.55 18.98-32.38 21.3-31.2 22.8-29.6L22.8-29.6 21.5-28.1Q20.05-29.6 18.1-30.53 16.15-31.45 13.65-31.45L13.65-31.45Q10.35-31.45 8.35-29.85 6.35-28.25 6.35-25.55L6.35-25.55Q6.35-24.1 6.9-23.1 7.45-22.1 8.3-21.38 9.15-20.65 10.15-20.13 11.15-19.6 12.05-19.2L12.05-19.2 17.05-17Q18.45-16.4 19.7-15.65 20.95-14.9 21.9-13.9 22.85-12.9 23.43-11.53 24-10.15 24-8.25L24-8.25Q24-6.35 23.25-4.73 22.5-3.1 21.13-1.93 19.75-0.75 17.8-0.08 15.85 0.6 13.45 0.6ZM41.85 0.6L41.85 0.6Q39.75 0.6 37.75-0.03 35.75-0.65 34.2-2.18 32.65-3.7 31.72-6.25 30.8-8.8 30.8-12.65L30.8-12.65 30.8-32.95 33.1-32.95 33.1-12.9Q33.1-9.6 33.82-7.43 34.55-5.25 35.75-3.93 36.95-2.6 38.52-2.05 40.1-1.5 41.85-1.5L41.85-1.5Q43.65-1.5 45.27-2.05 46.9-2.6 48.12-3.93 49.35-5.25 50.1-7.43 50.85-9.6 50.85-12.9L50.85-12.9 50.85-32.95 53-32.95 53-12.65Q53-8.8 52.05-6.25 51.1-3.7 49.55-2.18 48-0.65 46-0.03 44 0.6 41.85 0.6ZM64.8 0L62.6 0 62.6-32.95 65-32.95 78.9-9.7 82.59-3.15 82.8-3.15Q82.7-5.55 82.59-7.95 82.5-10.35 82.5-12.75L82.5-12.75 82.5-32.95 84.7-32.95 84.7 0 82.3 0 68.4-23.25 64.7-29.8 64.5-29.8Q64.59-27.4 64.7-25.13 64.8-22.85 64.8-20.45L64.8-20.45 64.8 0ZM106.69 0L104.39 0 104.39-32.95 113.84-32.95Q116.29-32.95 118.29-32.48 120.29-32 121.69-30.95 123.09-29.9 123.87-28.25 124.64-26.6 124.64-24.25L124.64-24.25Q124.64-20.3 122.37-18.05 120.09-15.8 116.19-15.3L116.19-15.3 125.29 0 122.64 0 113.69-15.15 106.69-15.15 106.69 0ZM106.69-31L106.69-17.05 113.24-17.05Q117.64-17.05 119.97-18.82 122.29-20.6 122.29-24.25L122.29-24.25Q122.29-27.95 119.94-29.48 117.59-31 113.24-31L113.24-31 106.69-31ZM133.89 0L131.59 0 131.59-32.95 133.89-32.95 133.89 0ZM155.29 0.6L155.29 0.6Q152.24 0.6 149.69-0.6 147.14-1.8 145.31-4.03 143.49-6.25 142.49-9.43 141.49-12.6 141.49-16.55L141.49-16.55Q141.49-20.45 142.51-23.6 143.54-26.75 145.39-28.98 147.24-31.2 149.81-32.38 152.39-33.55 155.54-33.55L155.54-33.55Q158.44-33.55 160.64-32.35 162.84-31.15 164.14-29.6L164.14-29.6 162.79-28.05Q161.44-29.6 159.64-30.53 157.84-31.45 155.59-31.45L155.59-31.45Q152.89-31.45 150.71-30.4 148.54-29.35 147.01-27.43 145.49-25.5 144.69-22.75 143.89-20 143.89-16.55L143.89-16.55Q143.89-13.1 144.69-10.33 145.49-7.55 146.99-5.6 148.49-3.65 150.61-2.58 152.74-1.5 155.39-1.5L155.39-1.5Q157.94-1.5 159.94-2.53 161.94-3.55 163.74-5.55L163.74-5.55 165.09-4.1Q163.19-1.9 160.84-0.65 158.49 0.6 155.29 0.6ZM190.33 0L171.78 0 171.78-32.95 189.83-32.95 189.83-30.95 174.08-30.95 174.08-18.5 187.28-18.5 187.28-16.5 174.08-16.5 174.08-2 190.33-2 190.33 0ZM216.93 0L214.63 0 214.63-30.95 204.13-30.95 204.13-32.95 227.43-32.95 227.43-30.95 216.93-30.95 216.93 0ZM244.13 0.6L244.13 0.6Q241.17 0.6 238.67-0.63 236.17-1.85 234.38-4.1 232.57-6.35 231.57-9.53 230.57-12.7 230.57-16.6L230.57-16.6Q230.57-20.5 231.57-23.63 232.57-26.75 234.38-28.98 236.17-31.2 238.67-32.38 241.17-33.55 244.13-33.55L244.13-33.55Q247.13-33.55 249.63-32.38 252.13-31.2 253.92-28.98 255.72-26.75 256.72-23.63 257.72-20.5 257.72-16.6L257.72-16.6Q257.72-12.7 256.72-9.53 255.72-6.35 253.92-4.1 252.13-1.85 249.63-0.63 247.13 0.6 244.13 0.6ZM244.13-1.5L244.13-1.5Q246.63-1.5 248.67-2.58 250.72-3.65 252.2-5.63 253.67-7.6 254.47-10.38 255.27-13.15 255.27-16.6L255.27-16.6Q255.27-20 254.47-22.75 253.67-25.5 252.2-27.43 250.72-29.35 248.67-30.4 246.63-31.45 244.13-31.45L244.13-31.45Q241.63-31.45 239.55-30.4 237.47-29.35 236.02-27.43 234.57-25.5 233.77-22.75 232.97-20 232.97-16.6L232.97-16.6Q232.97-13.15 233.77-10.38 234.57-7.6 236.02-5.63 237.47-3.65 239.55-2.58 241.63-1.5 244.13-1.5ZM267.57 0L265.27 0 265.27-32.95 267.57-32.95 267.57-14.65 267.67-14.65 283.62-32.95 286.37-32.95 275.87-20.75 287.82 0 285.17 0 274.27-19 267.57-11.35 267.57 0ZM295.47 0L293.17 0 293.17-32.95 295.47-32.95 295.47 0ZM316.62 0.6L316.62 0.6Q313.67 0.6 311.17-0.63 308.67-1.85 306.87-4.1 305.07-6.35 304.07-9.53 303.07-12.7 303.07-16.6L303.07-16.6Q303.07-20.5 304.07-23.63 305.07-26.75 306.87-28.98 308.67-31.2 311.17-32.38 313.67-33.55 316.62-33.55L316.62-33.55Q319.62-33.55 322.12-32.38 324.62-31.2 326.42-28.98 328.22-26.75 329.22-23.63 330.22-20.5 330.22-16.6L330.22-16.6Q330.22-12.7 329.22-9.53 328.22-6.35 326.42-4.1 324.62-1.85 322.12-0.63 319.62 0.6 316.62 0.6ZM316.62-1.5L316.62-1.5Q319.12-1.5 321.17-2.58 323.22-3.65 324.69-5.63 326.17-7.6 326.97-10.38 327.77-13.15 327.77-16.6L327.77-16.6Q327.77-20 326.97-22.75 326.17-25.5 324.69-27.43 323.22-29.35 321.17-30.4 319.12-31.45 316.62-31.45L316.62-31.45Q314.12-31.45 312.04-30.4 309.97-29.35 308.52-27.43 307.07-25.5 306.27-22.75 305.47-20 305.47-16.6L305.47-16.6Q305.47-13.15 306.27-10.38 307.07-7.6 308.52-5.63 309.97-3.65 312.04-2.58 314.12-1.5 316.62-1.5Z" opacity="1" transform="matrix(1,0,0,1,0,0)" fill="#ffffff" class="undefined-text-0" data-fill-palette-color="primary" id="text-0"></path></svg></g></svg></g><g transform="matrix(1,0,0,1,163.310208,50.90924964356762)"><svg viewBox="0 0 232.209792 35.03315219215097" height="35.03315219215097" width="232.209792"><g transform="matrix(1,0,0,1,0,0)"><svg width="232.209792" viewBox="3.5799999237060547 -34.5 233.1300048828125 35.18000030517578" height="35.03315219215097" data-palette-color="#ffffff"><path d="M21.95-17.43L21.95-17.43Q21.95-21.55 21.14-24.05 20.33-26.55 18.96-27.85 17.6-29.15 15.94-29.6 14.28-30.05 12.55-30.05L12.55-30.05 9.38-30.05 9.38-4.4 12.58-4.4Q14.38-4.4 16.05-4.98 17.73-5.55 19.06-6.98 20.4-8.4 21.18-10.94 21.95-13.48 21.95-17.43ZM28.05-17.43L28.05-17.43Q28.05-12.08 26.65-8.65 25.25-5.23 22.93-3.35 20.6-1.48 17.75-0.74 14.9 0 12.03 0L12.03 0 3.58 0 3.58-34.5 11.45-34.5Q14.6-34.5 17.56-33.83 20.53-33.15 22.89-31.33 25.25-29.5 26.65-26.15 28.05-22.8 28.05-17.43ZM54.62-18.25L54.62-6.48Q54.62-4.93 55.1-4.21 55.57-3.5 56.62-3.15L56.62-3.15 55.37 0.65Q53.42 0.43 52.02-0.43 50.62-1.28 49.9-3L49.9-3Q48.45-1.18 46.22-0.25 44 0.68 41.47 0.68L41.47 0.68Q37.47 0.68 35.13-1.59 32.8-3.85 32.8-7.53L32.8-7.53Q32.8-11.7 36.05-13.95 39.3-16.2 45.35-16.2L45.35-16.2 49.12-16.2 49.12-17.93Q49.12-20.48 47.59-21.6 46.05-22.73 43.25-22.73L43.25-22.73Q41.95-22.73 40.1-22.39 38.25-22.05 36.22-21.35L36.22-21.35 34.85-25.3Q37.32-26.23 39.7-26.66 42.07-27.1 44.1-27.1L44.1-27.1Q49.4-27.1 52.01-24.75 54.62-22.4 54.62-18.25L54.62-18.25ZM43.17-3.45L43.17-3.45Q44.87-3.45 46.5-4.35 48.12-5.25 49.12-6.88L49.12-6.88 49.12-12.7 46.02-12.7Q42.07-12.7 40.37-11.39 38.67-10.08 38.67-7.78L38.67-7.78Q38.67-5.68 39.81-4.56 40.95-3.45 43.17-3.45ZM84.47-5.1L86.5-1.4Q85.05-0.48 83.02 0.1 81 0.68 78.8 0.68L78.8 0.68Q74.2 0.68 71.81-1.71 69.42-4.1 69.42-8L69.42-8 69.42-22.33 63.55-22.33 63.55-26.4 69.42-26.4 69.42-32.3 75.02-32.98 75.02-26.4 83.92-26.4 83.3-22.33 75.02-22.33 75.02-8.05Q75.02-5.93 76.08-4.89 77.15-3.85 79.57-3.85L79.57-3.85Q81.02-3.85 82.25-4.2 83.47-4.55 84.47-5.1L84.47-5.1ZM114.62-18.25L114.62-6.48Q114.62-4.93 115.09-4.21 115.57-3.5 116.62-3.15L116.62-3.15 115.37 0.65Q113.42 0.43 112.02-0.43 110.62-1.28 109.89-3L109.89-3Q108.44-1.18 106.22-0.25 103.99 0.68 101.47 0.68L101.47 0.68Q97.47 0.68 95.13-1.59 92.79-3.85 92.79-7.53L92.79-7.53Q92.79-11.7 96.04-13.95 99.29-16.2 105.34-16.2L105.34-16.2 109.12-16.2 109.12-17.93Q109.12-20.48 107.58-21.6 106.04-22.73 103.24-22.73L103.24-22.73Q101.94-22.73 100.09-22.39 98.24-22.05 96.22-21.35L96.22-21.35 94.84-25.3Q97.32-26.23 99.69-26.66 102.07-27.1 104.09-27.1L104.09-27.1Q109.39-27.1 112.01-24.75 114.62-22.4 114.62-18.25L114.62-18.25ZM103.17-3.45L103.17-3.45Q104.87-3.45 106.49-4.35 108.12-5.25 109.12-6.88L109.12-6.88 109.12-12.7 106.02-12.7Q102.07-12.7 100.37-11.39 98.67-10.08 98.67-7.78L98.67-7.78Q98.67-5.68 99.81-4.56 100.94-3.45 103.17-3.45ZM141.52-9.98L141.52-9.98Q141.52-12.3 140.62-13.58 139.72-14.85 138.19-15.36 136.67-15.88 134.77-15.88L134.77-15.88 129.84-15.88 129.84-4.5 134.52-4.5Q135.77-4.5 137-4.71 138.24-4.93 139.27-5.51 140.29-6.1 140.9-7.18 141.52-8.25 141.52-9.98ZM140.19-25.3L140.19-25.3Q140.19-27.9 138.56-29.03 136.94-30.15 133.99-30.15L133.99-30.15 129.84-30.15 129.84-20.18 134.34-20.18Q137.24-20.18 138.72-21.39 140.19-22.6 140.19-25.3ZM147.56-9.95L147.56-9.95Q147.56-7.08 146.44-5.14 145.31-3.2 143.4-2.08 141.49-0.95 139.09-0.48 136.69 0 134.14 0L134.14 0 124.04 0 124.04-34.5 133.47-34.5Q135.89-34.5 138.14-34.09 140.39-33.68 142.18-32.68 143.97-31.68 145.02-29.99 146.06-28.3 146.06-25.78L146.06-25.78Q146.06-23.6 145.17-22.08 144.27-20.55 142.8-19.61 141.34-18.68 139.69-18.28L139.69-18.28Q141.56-17.98 143.38-17.11 145.19-16.25 146.38-14.53 147.56-12.8 147.56-9.95ZM174.61-18.25L174.61-6.48Q174.61-4.93 175.09-4.21 175.56-3.5 176.61-3.15L176.61-3.15 175.36 0.65Q173.41 0.43 172.01-0.43 170.61-1.28 169.89-3L169.89-3Q168.44-1.18 166.21-0.25 163.99 0.68 161.46 0.68L161.46 0.68Q157.46 0.68 155.13-1.59 152.79-3.85 152.79-7.53L152.79-7.53Q152.79-11.7 156.04-13.95 159.29-16.2 165.34-16.2L165.34-16.2 169.11-16.2 169.11-17.93Q169.11-20.48 167.58-21.6 166.04-22.73 163.24-22.73L163.24-22.73Q161.94-22.73 160.09-22.39 158.24-22.05 156.21-21.35L156.21-21.35 154.84-25.3Q157.31-26.23 159.69-26.66 162.06-27.1 164.09-27.1L164.09-27.1Q169.39-27.1 172-24.75 174.61-22.4 174.61-18.25L174.61-18.25ZM163.16-3.45L163.16-3.45Q164.86-3.45 166.49-4.35 168.11-5.25 169.11-6.88L169.11-6.88 169.11-12.7 166.01-12.7Q162.06-12.7 160.36-11.39 158.66-10.08 158.66-7.78L158.66-7.78Q158.66-5.68 159.8-4.56 160.94-3.45 163.16-3.45ZM194.04-3.63L194.04-3.63Q196.66-3.63 198.21-4.56 199.76-5.5 199.76-7.15L199.76-7.15Q199.76-8.22 199.31-8.99 198.86-9.75 197.51-10.39 196.16-11.03 193.41-11.73L193.41-11.73Q190.81-12.4 188.85-13.33 186.89-14.25 185.81-15.73 184.74-17.2 184.74-19.53L184.74-19.53Q184.74-21.8 186.01-23.5 187.29-25.2 189.67-26.15 192.06-27.1 195.29-27.1L195.29-27.1Q198.61-27.1 201.09-26.23 203.56-25.35 205.31-24.05L205.31-24.05 202.96-20.53Q201.41-21.55 199.57-22.2 197.74-22.85 195.44-22.85L195.44-22.85Q192.76-22.85 191.6-22.05 190.44-21.25 190.44-19.93L190.44-19.93Q190.44-18.95 191.02-18.29 191.61-17.63 193.06-17.06 194.51-16.5 197.16-15.75L197.16-15.75Q199.74-15.05 201.65-14.1 203.56-13.15 204.62-11.59 205.69-10.03 205.69-7.53L205.69-7.53Q205.69-4.67 204.05-2.86 202.41-1.05 199.75-0.19 197.09 0.68 194.04 0.68L194.04 0.68Q190.36 0.68 187.69-0.39 185.01-1.45 183.19-3.05L183.19-3.05 186.16-6.45Q187.71-5.2 189.71-4.41 191.71-3.63 194.04-3.63ZM236.58-11.4L219.08-11.4Q219.26-8.7 220.23-6.99 221.21-5.28 222.8-4.48 224.38-3.68 226.28-3.68L226.28-3.68Q228.23-3.68 229.88-4.28 231.53-4.88 233.21-5.98L233.21-5.98 235.63-2.63Q233.78-1.13 231.31-0.23 228.83 0.68 226.01 0.68L226.01 0.68Q221.91 0.68 219.07-1.07 216.23-2.83 214.76-5.95 213.28-9.08 213.28-13.18L213.28-13.18Q213.28-17.15 214.73-20.29 216.18-23.43 218.88-25.26 221.58-27.1 225.33-27.1L225.33-27.1Q228.86-27.1 231.4-25.5 233.93-23.9 235.32-20.96 236.71-18.03 236.71-13.9L236.71-13.9Q236.71-13.23 236.67-12.56 236.63-11.9 236.58-11.4L236.58-11.4ZM225.38-22.95L225.38-22.95Q222.76-22.95 221.05-21.08 219.33-19.2 219.06-15.23L219.06-15.23 231.28-15.23Q231.21-18.95 229.7-20.95 228.18-22.95 225.38-22.95Z" opacity="1" transform="matrix(1,0,0,1,0,0)" fill="#ffffff" class="undefined-text-1" data-fill-palette-color="secondary" id="text-1"></path></svg></g></svg></g></svg></g></svg></g><g transform="matrix(1,0,0,1,418.6803499371497,0)"><svg viewBox="0 0 102.53546196925596 118.77239933696309" height="118.77239933696309" width="102.53546196925596"><g><svg xmlns="http://www.w3.org/2000/svg" xmlns:xlink="http://www.w3.org/1999/xlink" version="1.1" x="0" y="0" viewBox="9.63800048828125 3.246999979019165 80.7239990234375 93.50699615478516" enable-background="new 0 0 100 100" xml:space="preserve" height="118.77239933696309" width="102.53546196925596" class="icon-icon-0" data-fill-palette-color="accent" id="icon-0"><g fill="#ffffff" data-fill-palette-color="accent"><g fill="#ffffff" data-fill-palette-color="accent"><polygon points="36.703,11.011 9.638,26.636 9.638,38.757 36.703,23.131 63.767,38.757 63.767,26.636   " fill="#ffffff" data-fill-palette-color="accent"></polygon></g><g fill="#ffffff" data-fill-palette-color="accent"><polygon points="63.298,89.092 36.233,73.467 36.233,61.348 63.298,76.973 90.362,61.348 90.362,73.467   " fill="#ffffff" data-fill-palette-color="accent"></polygon></g><g fill="#ffffff" data-fill-palette-color="accent"><polygon points="9.638,42.012 36.703,26.386 47.198,32.446 20.134,48.072 20.134,79.324 9.638,73.264   " fill="#ffffff" data-fill-palette-color="accent"></polygon></g><g fill="#ffffff" data-fill-palette-color="accent"><polygon points="77.083,18.872 50.018,3.247 39.522,9.307 66.586,24.932 66.586,56.184 77.083,50.124   " fill="#ffffff" data-fill-palette-color="accent"></polygon></g><g fill="#ffffff" data-fill-palette-color="accent"><polygon points="23.01,81.127 23.011,49.876 33.507,43.816 33.507,75.068 60.571,90.693 50.075,96.754   " fill="#ffffff" data-fill-palette-color="accent"></polygon></g><g fill="#ffffff" data-fill-palette-color="accent"><polygon points="90.362,58.092 90.362,26.84 79.866,20.78 79.866,52.031 52.802,67.658 63.298,73.719   " fill="#ffffff" data-fill-palette-color="accent"></polygon></g></g></svg></g></svg></g></svg></g><defs></defs></svg><rect width="395.5199999999999" height="90.12938270988454" fill="none" stroke="none" visibility="hidden"></rect></g></svg></g></svg>